<?xml version="1.0" encoding="UTF-8"?>
<svg xmlns="http://www.w3.org/2000/svg" xmlns:xlink="http://www.w3.org/1999/xlink" width="10pt" height="10pt" viewBox="0 0 10 10" version="1.1">
<g id="surface1">
<path style=" stroke:none;fill-rule:nonzero;fill:rgb(69.803922%,44.705882%,7.843137%);fill-opacity:1;" d="M 9.011719 7.28125 C 9.71875 7.210938 10.085938 8.097656 9.53125 8.542969 C 9.40625 8.640625 9.277344 8.738281 9.144531 8.828125 Z M 9.011719 7.28125 "/>
<path style=" stroke:none;fill-rule:nonzero;fill:rgb(69.803922%,44.705882%,7.843137%);fill-opacity:1;" d="M 1.457031 0.46875 C 1.902344 -0.0859375 2.789062 0.28125 2.71875 0.988281 C 2.699219 1.179688 2.6875 1.371094 2.6875 1.570312 L 1.0625 1.03125 C 1.183594 0.835938 1.316406 0.648438 1.457031 0.46875 Z M 1.457031 0.46875 "/>
<path style=" stroke:none;fill-rule:nonzero;fill:rgb(96.862745%,69.803922%,22.352941%);fill-opacity:1;" d="M 9.011719 7.28125 L 9.144531 8.828125 C 8.230469 9.441406 7.128906 9.800781 5.941406 9.800781 C 2.761719 9.800781 0.199219 7.238281 0.199219 4.058594 C 0.199219 2.945312 0.515625 1.910156 1.0625 1.03125 L 2.6875 1.570312 C 2.6875 4.738281 5.261719 7.3125 8.433594 7.3125 C 8.628906 7.3125 8.820312 7.300781 9.011719 7.28125 Z M 9.011719 7.28125 "/>
<path style=" stroke:none;fill-rule:nonzero;fill:rgb(87.843137%,60.784314%,17.647059%);fill-opacity:1;" d="M 1.433594 4.058594 C 1.433594 3.085938 1.675781 2.175781 2.097656 1.375 L 1.0625 1.03125 C 0.515625 1.910156 0.199219 2.945312 0.199219 4.058594 C 0.199219 7.238281 2.761719 9.800781 5.941406 9.800781 C 6.152344 9.800781 6.355469 9.789062 6.558594 9.769531 C 3.671875 9.460938 1.433594 7.027344 1.433594 4.058594 Z M 1.433594 4.058594 "/>
<path style=" stroke:none;fill-rule:nonzero;fill:rgb(100%,100%,100%);fill-opacity:1;" d="M 6.65625 7.871094 C 6.640625 7.871094 6.621094 7.871094 6.601562 7.863281 C 5.550781 7.558594 4.582031 6.984375 3.796875 6.203125 C 2.917969 5.320312 2.308594 4.222656 2.039062 3.019531 C 2.015625 2.914062 2.082031 2.804688 2.1875 2.78125 C 2.296875 2.757812 2.402344 2.824219 2.425781 2.933594 C 2.679688 4.058594 3.253906 5.09375 4.078125 5.921875 C 4.816406 6.65625 5.726562 7.195312 6.710938 7.480469 C 6.820312 7.511719 6.878906 7.621094 6.847656 7.726562 C 6.824219 7.816406 6.742188 7.871094 6.65625 7.871094 Z M 6.65625 7.871094 "/>
<path style=" stroke:none;fill-rule:nonzero;fill:rgb(100%,100%,100%);fill-opacity:1;" d="M 2.289062 2.109375 C 2.289062 2.222656 2.199219 2.308594 2.089844 2.308594 C 1.976562 2.308594 1.890625 2.222656 1.890625 2.109375 C 1.890625 2 1.976562 1.910156 2.089844 1.910156 C 2.199219 1.910156 2.289062 2 2.289062 2.109375 Z M 2.289062 2.109375 "/>
<path style=" stroke:none;fill-rule:nonzero;fill:rgb(20%,20%,20%);fill-opacity:1;" d="M 9.929688 7.644531 C 9.773438 7.261719 9.40625 7.042969 8.992188 7.085938 C 8.808594 7.101562 8.617188 7.113281 8.429688 7.113281 C 6.953125 7.113281 5.558594 6.535156 4.511719 5.488281 C 3.464844 4.441406 2.886719 3.046875 2.886719 1.570312 C 2.886719 1.382812 2.898438 1.191406 2.914062 1.007812 C 2.957031 0.59375 2.738281 0.226562 2.355469 0.0703125 C 1.972656 -0.0859375 1.558594 0.0234375 1.300781 0.34375 C 0.460938 1.394531 0 2.710938 0 4.058594 C 0 5.648438 0.617188 7.140625 1.738281 8.261719 C 2.859375 9.382812 4.351562 10 5.941406 10 C 7.289062 10 8.605469 9.539062 9.65625 8.699219 C 9.976562 8.441406 10.085938 8.027344 9.929688 7.644531 Z M 1.613281 0.59375 C 1.726562 0.453125 1.871094 0.398438 2.003906 0.398438 C 2.074219 0.398438 2.144531 0.414062 2.203125 0.4375 C 2.375 0.507812 2.546875 0.683594 2.519531 0.96875 C 2.507812 1.074219 2.5 1.183594 2.496094 1.292969 L 1.371094 0.921875 C 1.445312 0.808594 1.527344 0.699219 1.613281 0.59375 Z M 2.019531 7.980469 C 0.972656 6.9375 0.398438 5.542969 0.398438 4.058594 C 0.398438 3.058594 0.65625 2.109375 1.148438 1.269531 L 2.492188 1.714844 C 2.527344 3.246094 3.140625 4.679688 4.230469 5.769531 C 5.351562 6.894531 6.84375 7.511719 8.429688 7.511719 C 8.566406 7.511719 8.699219 7.507812 8.832031 7.496094 L 8.933594 8.726562 C 8.042969 9.300781 7.019531 9.601562 5.941406 9.601562 C 4.457031 9.601562 3.0625 9.027344 2.019531 7.980469 Z M 9.40625 8.386719 C 9.375 8.410156 9.34375 8.4375 9.3125 8.460938 L 9.230469 7.496094 C 9.398438 7.542969 9.507812 7.671875 9.5625 7.796875 C 9.628906 7.964844 9.625 8.210938 9.40625 8.386719 Z M 9.40625 8.386719 "/>
<path style=" stroke:none;fill-rule:nonzero;fill:rgb(20%,20%,20%);fill-opacity:1;" d="M 7.542969 8.441406 C 7.390625 8.453125 7.238281 8.460938 7.085938 8.460938 C 5.601562 8.460938 4.207031 7.882812 3.160156 6.839844 C 2.117188 5.792969 1.539062 4.398438 1.539062 2.914062 C 1.539062 2.695312 1.554688 2.472656 1.578125 2.257812 C 1.59375 2.148438 1.515625 2.050781 1.40625 2.035156 C 1.296875 2.023438 1.195312 2.101562 1.183594 2.210938 C 1.15625 2.441406 1.140625 2.679688 1.140625 2.914062 C 1.140625 4.507812 1.757812 6 2.878906 7.121094 C 4 8.242188 5.492188 8.859375 7.085938 8.859375 C 7.246094 8.859375 7.414062 8.851562 7.574219 8.839844 C 7.683594 8.828125 7.765625 8.734375 7.757812 8.625 C 7.746094 8.511719 7.652344 8.433594 7.542969 8.441406 Z M 7.542969 8.441406 "/>
</g>
</svg>
